<svg width="24" height="24" viewBox="0 0 24 24" fill="none" xmlns="http://www.w3.org/2000/svg">
<path d="M9.65039 13.8004L11.2604 15.0504C11.4704 15.2604 11.9404 15.3603 12.2504 15.3603H14.2304C14.8504 15.3603 15.5304 14.8903 15.6904 14.2703L16.9404 10.4803C17.2004 9.7503 16.7304 9.13033 15.9504 9.13033H13.8704C13.5604 9.13033 13.3004 8.87033 13.3504 8.51033L13.6104 6.8503C13.7104 6.3803 13.4004 5.86028 12.9304 5.71028C12.5104 5.55028 11.9904 5.76027 11.7904 6.07027L9.6604 9.24031" stroke="#292D32" stroke-width="1.5" stroke-miterlimit="10"/>
<path d="M7 13.8008V8.71069C7 7.98069 7.30999 7.7207 8.03999 7.7207H8.56C9.29 7.7207 9.60001 7.98069 9.60001 8.71069V13.8008C9.60001 14.5308 9.29 14.7908 8.56 14.7908H8.03999C7.30999 14.7908 7 14.5308 7 13.8008Z" stroke="#292D32" stroke-width="1.5" stroke-linecap="round" stroke-linejoin="round"/>
<path d="M18 18.8597H17.24C16.44 18.8597 15.68 19.1697 15.12 19.7297L13.41 21.4198C12.63 22.1898 11.36 22.1898 10.58 21.4198L8.87 19.7297C8.31 19.1697 7.54 18.8597 6.75 18.8597H6C4.34 18.8597 3 17.5298 3 15.8898V4.97974C3 3.33974 4.34 2.00977 6 2.00977H18C19.66 2.00977 21 3.33974 21 4.97974V15.8898C21 17.5198 19.66 18.8597 18 18.8597Z" stroke="#292D32" stroke-width="1.5" stroke-miterlimit="10" stroke-linecap="round" stroke-linejoin="round"/>
</svg>
