<svg width="20" height="22" viewBox="0 0 20 22" fill="none" xmlns="http://www.w3.org/2000/svg">
  <path
    d="M10.0016 21.76C8.52164 21.76 7.03164 21.2 5.87164 20.09C2.92164 17.25 -0.338359 12.72 0.891641 7.33C2.00164 2.44 6.27164 0.25 10.0016 0.25C10.0016 0.25 10.0016 0.25 10.0116 0.25C13.7416 0.25 18.0116 2.44 19.1216 7.34C20.3416 12.73 17.0816 17.25 14.1316 20.09C12.9716 21.2 11.4816 21.76 10.0016 21.76ZM10.0016 1.75C7.09164 1.75 3.35164 3.3 2.36164 7.66C1.28164 12.37 4.24164 16.43 6.92164 19C8.65164 20.67 11.3616 20.67 13.0916 19C15.7616 16.43 18.7216 12.37 17.6616 7.66C16.6616 3.3 12.9116 1.75 10.0016 1.75Z"
    fill="#E85C2F"/>
</svg>
