<svg width="14" height="14" viewBox="0 0 14 14" fill="none" xmlns="http://www.w3.org/2000/svg">
<path d="M8.00936 2.04748L9.03603 4.10081C9.17603 4.38664 9.54936 4.66081 9.86436 4.71331L11.7252 5.02248C12.9152 5.22081 13.1952 6.08414 12.3377 6.93581L10.891 8.38248C10.646 8.62748 10.5119 9.09998 10.5877 9.43831L11.0019 11.2291C11.3285 12.6466 10.576 13.195 9.32186 12.4541L7.57769 11.4216C7.26269 11.235 6.74353 11.235 6.42269 11.4216L4.67852 12.4541C3.43019 13.195 2.67186 12.6408 2.99852 11.2291L3.41269 9.43831C3.48852 9.09998 3.35436 8.62748 3.10936 8.38248L1.66269 6.93581C0.811024 6.08414 1.08519 5.22081 2.27519 5.02248L4.13602 4.71331C4.44519 4.66081 4.81852 4.38664 4.95852 4.10081L5.98519 2.04748C6.54519 0.933311 7.45519 0.933311 8.00936 2.04748Z" fill="#FAE528" stroke="#FAE528" stroke-width="1.5" stroke-linecap="round" stroke-linejoin="round"/>
</svg>
