<svg width="71" height="71" viewBox="0 0 71 71" fill="none" xmlns="http://www.w3.org/2000/svg">
<g filter="url(#filter0_d_482_26320)">
<circle cx="35.5" cy="34.5" r="27.5" fill="white"/>
</g>
<path fill-rule="evenodd" clip-rule="evenodd" d="M28.3038 17.1535C30.1649 17.0679 30.7582 17.0488 35.4988 17.0488C40.2394 17.0488 40.8327 17.0695 42.6922 17.1535C44.5516 17.2376 45.8208 17.5343 46.9314 17.9643C48.0943 18.4037 49.1494 19.0907 50.022 19.9792C50.9104 20.8502 51.5958 21.9036 52.0337 23.0682C52.4652 24.1787 52.7603 25.448 52.846 27.3042C52.9317 29.1684 52.9507 29.7618 52.9507 34.5007C52.9507 39.2413 52.9301 39.8347 52.846 41.6957C52.7619 43.552 52.4652 44.8212 52.0337 45.9318C51.5958 47.0964 50.9093 48.1516 50.022 49.0239C49.1494 49.9124 48.0943 50.5978 46.9314 51.0357C45.8208 51.4672 44.5516 51.7623 42.6953 51.848C40.8327 51.9336 40.2394 51.9527 35.4988 51.9527C30.7582 51.9527 30.1649 51.932 28.3038 51.848C26.4476 51.7639 25.1784 51.4672 24.0678 51.0357C22.9031 50.5977 21.8479 49.9112 20.9756 49.0239C20.0878 48.1524 19.4007 47.0977 18.9623 45.9333C18.5324 44.8228 18.2373 43.5535 18.1516 41.6973C18.0659 39.8331 18.0469 39.2397 18.0469 34.5007C18.0469 29.7602 18.0675 29.1668 18.1516 27.3074C18.2357 25.448 18.5324 24.1787 18.9623 23.0682C19.4013 21.9038 20.0889 20.8491 20.9772 19.9776C21.8483 19.0899 22.9024 18.4028 24.0662 17.9643C25.1768 17.5343 26.446 17.2392 28.3023 17.1535H28.3038ZM42.551 20.2949C40.7106 20.2108 40.1585 20.1933 35.4988 20.1933C30.8391 20.1933 30.287 20.2108 28.4466 20.2949C26.7443 20.3726 25.8209 20.6566 25.2053 20.8962C24.3914 21.2135 23.8092 21.5895 23.1984 22.2003C22.6193 22.7636 22.1737 23.4494 21.8942 24.2073C21.6547 24.8229 21.3707 25.7462 21.2929 27.4486C21.2088 29.289 21.1914 29.8411 21.1914 34.5007C21.1914 39.1604 21.2088 39.7125 21.2929 41.5529C21.3707 43.2553 21.6547 44.1786 21.8942 44.7942C22.1735 45.551 22.6193 46.238 23.1984 46.8012C23.7616 47.3803 24.4486 47.8261 25.2053 48.1053C25.8209 48.3449 26.7443 48.6289 28.4466 48.7066C30.287 48.7907 30.8375 48.8082 35.4988 48.8082C40.16 48.8082 40.7106 48.7907 42.551 48.7066C44.2533 48.6289 45.1767 48.3449 45.7923 48.1053C46.6062 47.788 47.1884 47.412 47.7992 46.8012C48.3783 46.238 48.8241 45.551 49.1034 44.7942C49.3429 44.1786 49.6269 43.2553 49.7047 41.5529C49.7887 39.7125 49.8062 39.1604 49.8062 34.5007C49.8062 29.8411 49.7887 29.289 49.7047 27.4486C49.6269 25.7462 49.3429 24.8229 49.1034 24.2073C48.7861 23.3934 48.41 22.8111 47.7992 22.2003C47.2359 21.6213 46.5502 21.1757 45.7923 20.8962C45.1767 20.6566 44.2533 20.3726 42.551 20.2949ZM33.2697 39.8807C34.5146 40.3989 35.9008 40.4689 37.1915 40.0786C38.4822 39.6883 39.5974 38.862 40.3466 37.7408C41.0958 36.6197 41.4325 35.2732 41.2993 33.9313C41.166 32.5895 40.571 31.3356 39.6159 30.3837C39.007 29.7752 38.2708 29.3093 37.4603 29.0195C36.6498 28.7297 35.7851 28.6232 34.9284 28.7077C34.0718 28.7922 33.2446 29.0655 32.5063 29.5081C31.768 29.9507 31.137 30.5514 30.6587 31.2671C30.1805 31.9828 29.8669 32.7957 29.7405 33.6471C29.6141 34.4986 29.678 35.3675 29.9277 36.1912C30.1774 37.015 30.6067 37.7732 31.1846 38.4111C31.7624 39.0491 32.4746 39.551 33.2697 39.8807ZM29.1558 28.1578C29.9888 27.3248 30.9777 26.664 32.066 26.2132C33.1543 25.7624 34.3208 25.5304 35.4988 25.5304C36.6768 25.5304 37.8433 25.7624 38.9316 26.2132C40.0199 26.664 41.0088 27.3248 41.8418 28.1578C42.6747 28.9907 43.3355 29.9796 43.7863 31.068C44.2371 32.1563 44.4691 33.3228 44.4691 34.5007C44.4691 35.6787 44.2371 36.8452 43.7863 37.9335C43.3355 39.0219 42.6747 40.0108 41.8418 40.8437C40.1595 42.526 37.8779 43.4711 35.4988 43.4711C33.1197 43.4711 30.8381 42.526 29.1558 40.8437C27.4736 39.1615 26.5285 36.8798 26.5285 34.5007C26.5285 32.1217 27.4736 29.84 29.1558 28.1578ZM46.4586 26.8663C46.665 26.6716 46.8303 26.4375 46.9446 26.1777C47.0589 25.918 47.1199 25.638 47.124 25.3542C47.1282 25.0705 47.0753 24.7888 46.9686 24.5259C46.862 24.2629 46.7036 24.0241 46.503 23.8234C46.3023 23.6228 46.0634 23.4644 45.8005 23.3577C45.5375 23.251 45.2559 23.1982 44.9721 23.2023C44.6884 23.2065 44.4084 23.2675 44.1486 23.3818C43.8889 23.4961 43.6548 23.6614 43.46 23.8678C43.0814 24.2692 42.874 24.8024 42.8821 25.3542C42.8901 25.9061 43.1129 26.433 43.5031 26.8232C43.8934 27.2135 44.4203 27.4363 44.9721 27.4443C45.5239 27.4523 46.0572 27.245 46.4586 26.8663Z" fill="#1A1A1A"/>
<defs>
<filter id="filter0_d_482_26320" x="0" y="0" width="71" height="71" filterUnits="userSpaceOnUse" color-interpolation-filters="sRGB">
<feFlood flood-opacity="0" result="BackgroundImageFix"/>
<feColorMatrix in="SourceAlpha" type="matrix" values="0 0 0 0 0 0 0 0 0 0 0 0 0 0 0 0 0 0 127 0" result="hardAlpha"/>
<feOffset dy="1"/>
<feGaussianBlur stdDeviation="4"/>
<feColorMatrix type="matrix" values="0 0 0 0 0.101961 0 0 0 0 0.101961 0 0 0 0 0.101961 0 0 0 0.12 0"/>
<feBlend mode="normal" in2="BackgroundImageFix" result="effect1_dropShadow_482_26320"/>
<feBlend mode="normal" in="SourceGraphic" in2="effect1_dropShadow_482_26320" result="shape"/>
</filter>
</defs>
</svg>
