<svg width="23" height="24" viewBox="0 0 23 24" fill="none" xmlns="http://www.w3.org/2000/svg">
<path d="M16.3472 21.25H6.846C6.45645 21.25 6.13341 20.91 6.13341 20.5C6.13341 20.09 6.45645 19.75 6.846 19.75H16.3472C19.0645 19.75 20.3852 18.36 20.3852 15.5V8.5C20.3852 5.64 19.0645 4.25 16.3472 4.25H6.846C4.12866 4.25 2.80799 5.64 2.80799 8.5C2.80799 8.91 2.48495 9.25 2.0954 9.25C1.70585 9.25 1.38281 8.91 1.38281 8.5C1.38281 4.85 3.37806 2.75 6.846 2.75H16.3472C19.8151 2.75 21.8104 4.85 21.8104 8.5V15.5C21.8104 19.15 19.8151 21.25 16.3472 21.25Z" fill="#292D32"/>
<path d="M11.5947 12.87C10.7966 12.87 9.98896 12.61 9.37139 12.08L6.39751 9.57997C6.09347 9.31997 6.03647 8.84997 6.2835 8.52997C6.53053 8.20997 6.97708 8.14997 7.28111 8.40997L10.255 10.91C10.9771 11.52 12.2027 11.52 12.9248 10.91L15.8987 8.40997C16.2027 8.14997 16.6588 8.19997 16.8963 8.52997C17.1433 8.84997 17.0958 9.32997 16.7823 9.57997L13.8084 12.08C13.2003 12.61 12.3928 12.87 11.5947 12.87Z" fill="#292D32"/>
<path d="M7.79611 17.25H2.0954C1.70585 17.25 1.38281 16.91 1.38281 16.5C1.38281 16.09 1.70585 15.75 2.0954 15.75H7.79611C8.18566 15.75 8.5087 16.09 8.5087 16.5C8.5087 16.91 8.18566 17.25 7.79611 17.25Z" fill="#292D32"/>
<path d="M4.94576 13.25H2.0954C1.70585 13.25 1.38281 12.91 1.38281 12.5C1.38281 12.09 1.70585 11.75 2.0954 11.75H4.94576C5.33531 11.75 5.65835 12.09 5.65835 12.5C5.65835 12.91 5.33531 13.25 4.94576 13.25Z" fill="#292D32"/>
</svg>
