<svg width="71" height="71" viewBox="0 0 71 71" fill="none" xmlns="http://www.w3.org/2000/svg">
<g filter="url(#filter0_d_482_26321)">
<circle cx="35.5" cy="34.5" r="27.5" fill="white"/>
</g>
<path d="M48.3892 19.053C47.9648 19.0838 47.5482 19.1834 47.1557 19.3478H47.1504C46.7736 19.4972 44.9821 20.2508 42.2586 21.3931L32.4987 25.5036C25.4955 28.4519 18.6112 31.3552 18.6112 31.3552L18.6932 31.3235C18.6932 31.3235 18.2186 31.4795 17.7228 31.8193C17.4165 32.0142 17.1529 32.2692 16.948 32.569C16.7047 32.9259 16.5091 33.472 16.5818 34.0365C16.7008 34.9911 17.3195 35.5635 17.7638 35.8795C18.2133 36.1995 18.6416 36.3489 18.6416 36.3489H18.6522L25.1081 38.5238C25.3977 39.4532 27.0754 44.9691 27.4787 46.2396C27.7166 46.9985 27.948 47.4732 28.2376 47.8354C28.3777 48.0205 28.5416 48.1752 28.7386 48.2995C28.841 48.3591 28.9502 48.4061 29.0639 48.4396L28.9978 48.4238C29.0176 48.429 29.0335 48.4449 29.048 48.4502C29.1009 48.4647 29.1366 48.47 29.204 48.4806C30.226 48.79 31.047 48.1554 31.047 48.1554L31.0933 48.1184L34.905 44.6478L41.2934 49.5489L41.4389 49.611C42.7702 50.1954 44.1188 49.8702 44.8314 49.2964C45.5493 48.7186 45.8283 47.9795 45.8283 47.9795L45.8746 47.8605L50.8114 22.5698C50.9515 21.9458 50.9872 21.3614 50.8325 20.7942C50.673 20.2202 50.3047 19.7265 49.7999 19.4099C49.3761 19.1523 48.8846 19.0279 48.3892 19.053V19.053ZM48.2557 21.7633C48.2504 21.8466 48.2663 21.8373 48.2293 21.9973V22.0119L43.3388 47.0395C43.3176 47.0752 43.2819 47.1532 43.1841 47.2312C43.0809 47.3132 42.999 47.3647 42.5693 47.1942L34.7556 41.2037L30.0356 45.5059L31.0272 39.1729L43.7936 27.2739C44.3198 26.7847 44.1439 26.6816 44.1439 26.6816C44.1809 26.0813 43.3493 26.5057 43.3493 26.5057L27.2513 36.4784L27.246 36.452L19.5301 33.854V33.8488L19.5103 33.8448C19.5238 33.8403 19.537 33.835 19.5499 33.8289L19.5922 33.8078L19.6332 33.7932C19.6332 33.7932 26.5228 30.8899 33.526 27.9415C37.0323 26.4647 40.565 24.9774 43.2819 23.8298C45.9989 22.6888 48.0071 21.8519 48.1208 21.8069C48.2293 21.7646 48.1777 21.7646 48.2557 21.7646V21.7633Z" fill="black"/>
<defs>
<filter id="filter0_d_482_26321" x="0" y="0" width="71" height="71" filterUnits="userSpaceOnUse" color-interpolation-filters="sRGB">
<feFlood flood-opacity="0" result="BackgroundImageFix"/>
<feColorMatrix in="SourceAlpha" type="matrix" values="0 0 0 0 0 0 0 0 0 0 0 0 0 0 0 0 0 0 127 0" result="hardAlpha"/>
<feOffset dy="1"/>
<feGaussianBlur stdDeviation="4"/>
<feColorMatrix type="matrix" values="0 0 0 0 0.101961 0 0 0 0 0.101961 0 0 0 0 0.101961 0 0 0 0.12 0"/>
<feBlend mode="normal" in2="BackgroundImageFix" result="effect1_dropShadow_482_26321"/>
<feBlend mode="normal" in="SourceGraphic" in2="effect1_dropShadow_482_26321" result="shape"/>
</filter>
</defs>
</svg>
