<svg width="71" height="71" viewBox="0 0 71 71" fill="none" xmlns="http://www.w3.org/2000/svg">
<g filter="url(#filter0_d_482_26322)">
<circle cx="35.5" cy="34.5" r="27.5" fill="white"/>
</g>
<g clip-path="url(#clip0_482_26322)">
<path fill-rule="evenodd" clip-rule="evenodd" d="M43.3259 37.9437C42.8952 37.7283 40.7833 36.6905 40.3901 36.5459C39.9969 36.4028 39.7107 36.332 39.4231 36.7627C39.1369 37.1906 38.3144 38.1591 38.0643 38.4453C37.8128 38.733 37.5627 38.7677 37.1334 38.5537C36.7041 38.3369 35.3193 37.8845 33.6786 36.4216C32.4022 35.2825 31.5392 33.876 31.2892 33.4453C31.0391 33.016 31.2617 32.7832 31.4771 32.5693C31.6708 32.3771 31.9064 32.0677 32.1218 31.8176C32.3372 31.5661 32.408 31.3869 32.5511 31.0992C32.6956 30.813 32.6234 30.5629 32.515 30.3476C32.408 30.1322 31.5494 28.0174 31.1909 27.1573C30.8425 26.3204 30.4883 26.4345 30.2253 26.4201C29.9737 26.4085 29.6875 26.4056 29.4013 26.4056C29.1151 26.4056 28.6497 26.5126 28.2565 26.9434C27.8619 27.3727 26.7531 28.412 26.7531 30.5268C26.7531 32.6401 28.2912 34.6826 28.5066 34.9703C28.7219 35.2565 31.5349 39.5959 35.844 41.4563C36.8703 41.8986 37.6697 42.1632 38.2927 42.3598C39.3219 42.6879 40.2586 42.6416 40.9987 42.5303C41.8226 42.4075 43.5399 41.491 43.8984 40.4878C44.2554 39.4846 44.2554 38.6246 44.1484 38.4453C44.0415 38.2661 43.7553 38.1591 43.3245 37.9437H43.3259ZM35.4884 48.6449H35.4826C32.9232 48.6453 30.4108 47.9573 28.2088 46.6529L27.6884 46.3436L22.2793 47.7631L23.7233 42.4899L23.3837 41.9492C21.9528 39.6716 21.1956 37.0356 21.1995 34.3458C21.2024 26.4678 27.6118 20.0584 35.4942 20.0584C39.3103 20.0584 42.8981 21.5473 45.5954 24.2475C46.9258 25.5724 47.9803 27.148 48.6979 28.8831C49.4154 30.6182 49.7818 32.4784 49.7758 34.356C49.7729 42.234 43.3635 48.6449 35.4884 48.6449V48.6449ZM47.648 22.1963C46.0554 20.5931 44.1603 19.322 42.0728 18.4565C39.9853 17.591 37.7468 17.1484 35.4869 17.1544C26.013 17.1544 18.2998 24.8662 18.2969 34.3444C18.2954 37.3742 19.0861 40.3317 20.5909 42.938L18.1523 51.8467L27.2649 49.4558C29.7856 50.8292 32.6105 51.5488 35.4811 51.5489H35.4884C44.9623 51.5489 52.6755 43.8371 52.6784 34.3574C52.6854 32.0985 52.2444 29.8606 51.381 27.7731C50.5175 25.6857 49.2487 23.7902 47.648 22.1963" fill="black"/>
</g>
<defs>
<filter id="filter0_d_482_26322" x="0" y="0" width="71" height="71" filterUnits="userSpaceOnUse" color-interpolation-filters="sRGB">
<feFlood flood-opacity="0" result="BackgroundImageFix"/>
<feColorMatrix in="SourceAlpha" type="matrix" values="0 0 0 0 0 0 0 0 0 0 0 0 0 0 0 0 0 0 127 0" result="hardAlpha"/>
<feOffset dy="1"/>
<feGaussianBlur stdDeviation="4"/>
<feColorMatrix type="matrix" values="0 0 0 0 0.101961 0 0 0 0 0.101961 0 0 0 0 0.101961 0 0 0 0.12 0"/>
<feBlend mode="normal" in2="BackgroundImageFix" result="effect1_dropShadow_482_26322"/>
<feBlend mode="normal" in="SourceGraphic" in2="effect1_dropShadow_482_26322" result="shape"/>
</filter>
<clipPath id="clip0_482_26322">
<rect width="34.6923" height="34.6923" fill="white" transform="translate(18.1523 17.1543)"/>
</clipPath>
</defs>
</svg>
